<svg viewBox="0 0 1200 800" xmlns="http://www.w3.org/2000/svg">
  <!-- Background -->
  <rect width="1200" height="800" fill="#F5F7FA" />
  
  <!-- Left Panel: Navigation Sidebar -->
  <rect x="0" y="0" width="250" height="800" fill="#FFFFFF" />
  
  <!-- Project Selector -->
  <rect x="20" y="20" width="210" height="50" rx="8" fill="#19BE82" />
  <text x="70" y="50" font-family="Inter, sans-serif" font-size="16" fill="white" font-weight="600">New Audiobook</text>
  <circle cx="45" cy="45" r="15" fill="white" opacity="0.3" />
  <path d="M45 50 L52 43 L45 36 L38 43 Z" fill="white" />
  
  <!-- Search Bar -->
  <rect x="20" y="90" width="210" height="40" rx="8" fill="#F5F7FA" />
  <text x="55" y="115" font-family="Inter, sans-serif" font-size="14" fill="#64748B">Search projects...</text>
  <circle cx="40" cy="110" r="10" fill="none" stroke="#64748B" stroke-width="1.5" />
  <line x1="48" y1="118" x2="52" y2="122" stroke="#64748B" stroke-width="1.5" />
  
  <!-- Section Header: Tools -->
  <text x="20" y="160" font-family="Inter, sans-serif" font-size="14" font-weight="600" fill="#1E293B">Tools</text>
  <path d="M25 152 L35 152 L30 158 Z" fill="#1E293B" />
  
  <!-- Tools Grid -->
  <rect x="20" y="180" width="100" height="80" rx="8" fill="#19BE82" opacity="0.1" stroke="#19BE82" stroke-width="2" />
  <rect x="130" y="180" width="100" height="80" rx="8" fill="white" stroke="#E2E8F0" stroke-width="1" />
  <rect x="20" y="270" width="100" height="80" rx="8" fill="white" stroke="#E2E8F0" stroke-width="1" />
  <rect x="130" y="270" width="100" height="80" rx="8" fill="white" stroke="#E2E8F0" stroke-width="1" />
  
  <!-- Tool Icons and Labels -->
  <circle cx="70" cy="215" r="15" fill="#19BE82" opacity="0.2" />
  <text x="70" y="250" font-family="Inter, sans-serif" font-size="14" fill="#19BE82" font-weight="600" text-anchor="middle">Import</text>
  
  <rect x="165" y="200" width="30" height="30" rx="4" fill="#F5F7FA" />
  <text x="180" y="250" font-family="Inter, sans-serif" font-size="14" fill="#1E293B" text-anchor="middle">Editor</text>
  
  <rect x="55" y="290" width="30" height="30" rx="15" fill="#F5F7FA" />
  <text x="70" y="340" font-family="Inter, sans-serif" font-size="14" fill="#1E293B" text-anchor="middle">Voices</text>
  
  <path d="M180 290 L165 305 L175 305 L175 315 L185 315 L185 305 L195 305 Z" fill="#F5F7FA" />
  <text x="180" y="340" font-family="Inter, sans-serif" font-size="14" fill="#1E293B" text-anchor="middle">Export</text>
  
  <!-- Recent Projects Section -->
  <text x="20" y="390" font-family="Inter, sans-serif" font-size="14" font-weight="600" fill="#1E293B">Recent Projects</text>
  <rect x="195" y="380" width="35" height="20" rx="10" fill="#E2E8F0" />
  <text x="210" y="395" font-family="Inter, sans-serif" font-size="12" fill="#64748B" text-anchor="middle">5</text>
  <path d="M25 382 L35 382 L30 388 Z" fill="#1E293B" />
  
  <!-- Recent Projects List -->
  <rect x="20" y="410" width="210" height="50" rx="8" fill="white" stroke="#E2E8F0" stroke-width="1" />
  <text x="45" y="435" font-family="Inter, sans-serif" font-size="14" fill="#1E293B">Pride and Prejudice</text>
  <text x="45" y="450" font-family="Inter, sans-serif" font-size="12" fill="#64748B">Last edited 2 days ago</text>
  <rect x="20" y="470" width="210" height="50" rx="8" fill="white" stroke="#E2E8F0" stroke-width="1" />
  <text x="45" y="495" font-family="Inter, sans-serif" font-size="14" fill="#1E293B">The Great Gatsby</text>
  <text x="45" y="510" font-family="Inter, sans-serif" font-size="12" fill="#64748B">Last edited 5 days ago</text>
  
  <!-- Center Panel: Import Workspace -->
  <rect x="250" y="0" width="650" height="800" fill="#FFFFFF" />
  
  <!-- Header -->
  <rect x="250" y="0" width="650" height="60" fill="#FFFFFF" stroke="#E2E8F0" stroke-width="1" />
  <text x="280" y="35" font-family="Inter, sans-serif" font-size="18" font-weight="600" fill="#1E293B">Import New Book</text>
  <text x="450" y="35" font-family="Inter, sans-serif" font-size="14" fill="#64748B">Step 1 of 4: Select Book File</text>
  
  <!-- Import Area -->
  <rect x="300" y="100" width="550" height="300" rx="12" fill="#F5F7FA" stroke="#E2E8F0" stroke-width="2" stroke-dasharray="6,4" />
  
  <!-- Import Icon -->
  <circle cx="575" cy="180" r="40" fill="#19BE82" opacity="0.1" />
  <path d="M575 150 L560 170 L570 170 L570 190 L580 190 L580 170 L590 170 Z" fill="#19BE82" />
  
  <!-- Import Text -->
  <text x="575" y="240" font-family="Inter, sans-serif" font-size="18" font-weight="600" fill="#1E293B" text-anchor="middle">Drag and Drop Book File</text>
  <text x="575" y="270" font-family="Inter, sans-serif" font-size="14" fill="#64748B" text-anchor="middle">or click to browse files</text>
  
  <!-- Supported Formats -->
  <text x="575" y="320" font-family="Inter, sans-serif" font-size="12" fill="#64748B" text-anchor="middle">Supported formats: EPUB, PDF, TXT</text>
  
  <!-- Browse Button -->
  <rect x="500" y="340" width="150" height="40" rx="8" fill="#FFFFFF" stroke="#19BE82" stroke-width="2" />
  <text x="575" y="365" font-family="Inter, sans-serif" font-size="14" fill="#19BE82" font-weight="500" text-anchor="middle">Browse Files</text>
  
  <!-- Recent Books -->
  <text x="300" y="440" font-family="Inter, sans-serif" font-size="16" font-weight="600" fill="#1E293B">Recently Added Books</text>
  
  <!-- Book Cards -->
  <rect x="300" y="460" width="250" height="160" rx="8" fill="#FFFFFF" stroke="#E2E8F0" stroke-width="1" />
  <rect x="320" y="480" width="60" height="80" rx="4" fill="#F5F7FA" />
  <text x="390" y="510" font-family="Inter, sans-serif" font-size="14" font-weight="600" fill="#1E293B">Sherlock Holmes</text>
  <text x="390" y="530" font-family="Inter, sans-serif" font-size="12" fill="#64748B">Arthur Conan Doyle</text>
  <text x="390" y="550" font-family="Inter, sans-serif" font-size="12" fill="#64748B">EPUB • 324 pages</text>
  <rect x="320" y="580" width="100" height="24" rx="12" fill="#19BE82" />
  <text x="370" y="596" font-family="Inter, sans-serif" font-size="12" fill="white" text-anchor="middle">Import</text>
  
  <rect x="600" y="460" width="250" height="160" rx="8" fill="#FFFFFF" stroke="#E2E8F0" stroke-width="1" />
  <rect x="620" y="480" width="60" height="80" rx="4" fill="#F5F7FA" />
  <text x="690" y="510" font-family="Inter, sans-serif" font-size="14" font-weight="600" fill="#1E293B">Moby Dick</text>
  <text x="690" y="530" font-family="Inter, sans-serif" font-size="12" fill="#64748B">Herman Melville</text>
  <text x="690" y="550" font-family="Inter, sans-serif" font-size="12" fill="#64748B">EPUB • 721 pages</text>
  <rect x="620" y="580" width="100" height="24" rx="12" fill="#19BE82" />
  <text x="670" y="596" font-family="Inter, sans-serif" font-size="12" fill="white" text-anchor="middle">Import</text>
  
  <!-- Footer -->
  <rect x="250" y="740" width="650" height="60" fill="#FFFFFF" stroke="#E2E8F0" stroke-width="1" />
  <rect x="730" y="750" width="150" height="40" rx="8" fill="#19BE82" />
  <text x="805" y="775" font-family="Inter, sans-serif" font-size="14" fill="white" font-weight="500" text-anchor="middle">Continue</text>
  
  <!-- Right Panel: Import Settings -->
  <rect x="900" y="0" width="300" height="800" fill="#FFFFFF" />
  
  <!-- Settings Header -->
  <rect x="900" y="0" width="300" height="60" fill="#FFFFFF" stroke="#E2E8F0" stroke-width="1" />
  <text x="930" y="35" font-family="Inter, sans-serif" font-size="18" font-weight="600" fill="#1E293B">Import Settings</text>
  
  <!-- Import Options -->
  <text x="920" y="100" font-family="Inter, sans-serif" font-size="14" font-weight="600" fill="#1E293B">Book Type</text>
  
  <!-- Book Type Options -->
  <rect x="920" y="120" width="260" height="40" rx="8" fill="#FFFFFF" stroke="#19BE82" stroke-width="2" />
  <text x="940" y="145" font-family="Inter, sans-serif" font-size="14" fill="#1E293B">Fiction Novel</text>
  <circle cx="1160" cy="140" r="8" fill="#19BE82" />
  <circle cx="1160" cy="140" r="3" fill="white" />
  
  <rect x="920" y="170" width="260" height="40" rx="8" fill="#FFFFFF" stroke="#E2E8F0" stroke-width="1" />
  <text x="940" y="195" font-family="Inter, sans-serif" font-size="14" fill="#1E293B">Non-Fiction</text>
  <circle cx="1160" cy="190" r="8" fill="#F5F7FA" stroke="#E2E8F0" stroke-width="1" />
  
  <rect x="920" y="220" width="260" height="40" rx="8" fill="#FFFFFF" stroke="#E2E8F0" stroke-width="1" />
  <text x="940" y="245" font-family="Inter, sans-serif" font-size="14" fill="#1E293B">Play/Script</text>
  <circle cx="1160" cy="240" r="8" fill="#F5F7FA" stroke="#E2E8F0" stroke-width="1" />
  
  <rect x="920" y="270" width="260" height="40" rx="8" fill="#FFFFFF" stroke="#E2E8F0" stroke-width="1" />
  <text x="940" y="295" font-family="Inter, sans-serif" font-size="14" fill="#1E293B">Poetry Collection</text>
  <circle cx="1160" cy="290" r="8" fill="#F5F7FA" stroke="#E2E8F0" stroke-width="1" />
  
  <!-- Processing Options -->
  <text x="920" y="340" font-family="Inter, sans-serif" font-size="14" font-weight="600" fill="#1E293B">Processing Options</text>
  
  <!-- Options -->
  <rect x="920" y="360" width="260" height="40" rx="8" fill="#FFFFFF" stroke="#E2E8F0" stroke-width="1" />
  <text x="940" y="385" font-family="Inter, sans-serif" font-size="14" fill="#1E293B">Preserve Chapter Structure</text>
  <rect x="1140" y="370" width="40" height="20" rx="10" fill="#19BE82" />
  <circle cx="1170" cy="380" r="8" fill="white" />
  
  <rect x="920" y="410" width="260" height="40" rx="8" fill="#FFFFFF" stroke="#E2E8F0" stroke-width="1" />
  <text x="940" y="435" font-family="Inter, sans-serif" font-size="14" fill="#1E293B">Extract Metadata</text>
  <rect x="1140" y="420" width="40" height="20" rx="10" fill="#19BE82" />
  <circle cx="1170" cy="430" r="8" fill="white" />
  
  <rect x="920" y="460" width="260" height="40" rx="8" fill="#FFFFFF" stroke="#E2E8F0" stroke-width="1" />
  <text x="940" y="485" font-family="Inter, sans-serif" font-size="14" fill="#1E293B">Pre-analyze Characters</text>
  <rect x="1140" y="470" width="40" height="20" rx="10" fill="#19BE82" />
  <circle cx="1170" cy="480" r="8" fill="white" />
  
  <rect x="920" y="510" width="260" height="40" rx="8" fill="#FFFFFF" stroke="#E2E8F0" stroke-width="1" />
  <text x="940" y="535" font-family="Inter, sans-serif" font-size="14" fill="#1E293B">Use Gemini AI for Analysis</text>
  <rect x="1140" y="520" width="40" height="20" rx="10" fill="#19BE82" />
  <circle cx="1170" cy="530" r="8" fill="white" />
  
  <!-- Project Info -->
  <text x="920" y="580" font-family="Inter, sans-serif" font-size="14" font-weight="600" fill="#1E293B">Project Information</text>
  
  <!-- Project Name -->
  <text x="920" y="610" font-family="Inter, sans-serif" font-size="12" fill="#64748B">Project Name</text>
  <rect x="920" y="620" width="260" height="40" rx="8" fill="#FFFFFF" stroke="#E2E8F0" stroke-width="1" />
  <text x="935" y="645" font-family="Inter, sans-serif" font-size="14" fill="#1E293B">New Audiobook Project</text>
  
  <!-- Project Template -->
  <text x="920" y="680" font-family="Inter, sans-serif" font-size="12" fill="#64748B">Project Template</text>
  <rect x="920" y="690" width="260" height="40" rx="8" fill="#FFFFFF" stroke="#E2E8F0" stroke-width="1" />
  <text x="935" y="715" font-family="Inter, sans-serif" font-size="14" fill="#1E293B">Standard Novel</text>
  <path d="M1160 705 L1170 695 L1160 685" fill="none" stroke="#64748B" stroke-width="1.5" />
</svg>