<svg viewBox="0 0 1200 800" xmlns="http://www.w3.org/2000/svg">
  <!-- Background -->
  <rect width="1200" height="800" fill="#F5F7FA" />
  
  <!-- Left Panel: Navigation Sidebar -->
  <rect x="0" y="0" width="250" height="800" fill="#FFFFFF" />
  
  <!-- Project Selector -->
  <rect x="20" y="20" width="210" height="50" rx="8" fill="#19BE82" />
  <text x="70" y="50" font-family="Inter, sans-serif" font-size="16" fill="white" font-weight="600">Pride and Prejudice</text>
  <circle cx="45" cy="45" r="15" fill="white" opacity="0.3" />
  <path d="M45 50 L52 43 L45 36 L38 43 Z" fill="white" />
  
  <!-- Search Bar -->
  <rect x="20" y="90" width="210" height="40" rx="8" fill="#F5F7FA" />
  <text x="55" y="115" font-family="Inter, sans-serif" font-size="14" fill="#64748B">Search projects...</text>
  <circle cx="40" cy="110" r="10" fill="none" stroke="#64748B" stroke-width="1.5" />
  <line x1="48" y1="118" x2="52" y2="122" stroke="#64748B" stroke-width="1.5" />
  
  <!-- Section Header: Tools -->
  <text x="20" y="160" font-family="Inter, sans-serif" font-size="14" font-weight="600" fill="#1E293B">Tools</text>
  <path d="M25 152 L35 152 L30 158 Z" fill="#1E293B" />
  
  <!-- Tools Grid -->
  <rect x="20" y="180" width="100" height="80" rx="8" fill="white" stroke="#E2E8F0" stroke-width="1" />
  <rect x="130" y="180" width="100" height="80" rx="8" fill="white" stroke="#E2E8F0" stroke-width="1" />
  <rect x="20" y="270" width="100" height="80" rx="8" fill="#19BE82" opacity="0.1" stroke="#19BE82" stroke-width="2" />
  <rect x="130" y="270" width="100" height="80" rx="8" fill="white" stroke="#E2E8F0" stroke-width="1" />
  
  <!-- Tool Icons and Labels -->
  <circle cx="70" cy="215" r="15" fill="#F5F7FA" />
  <text x="70" y="250" font-family="Inter, sans-serif" font-size="14" fill="#1E293B" text-anchor="middle">Import</text>
  
  <rect x="165" y="200" width="30" height="30" rx="4" fill="#F5F7FA" />
  <text x="180" y="250" font-family="Inter, sans-serif" font-size="14" fill="#1E293B" text-anchor="middle">Editor</text>
  
  <rect x="55" y="290" width="30" height="30" rx="15" fill="#19BE82" opacity="0.2" />
  <text x="70" y="340" font-family="Inter, sans-serif" font-size="14" fill="#19BE82" font-weight="600" text-anchor="middle">Voices</text>
  
  <path d="M180 290 L165 305 L175 305 L175 315 L185 315 L185 305 L195 305 Z" fill="#F5F7FA" />
  <text x="180" y="340" font-family="Inter, sans-serif" font-size="14" fill="#1E293B" text-anchor="middle">Export</text>
  
  <!-- Project Characters -->
  <text x="20" y="390" font-family="Inter, sans-serif" font-size="14" font-weight="600" fill="#1E293B">Project Characters</text>
  <rect x="195" y="380" width="35" height="20" rx="10" fill="#E2E8F0" />
  <text x="210" y="395" font-family="Inter, sans-serif" font-size="12" fill="#64748B" text-anchor="middle">18</text>
  <path d="M25 382 L35 382 L30 388 Z" fill="#1E293B" />
  
  <!-- Character List -->
  <rect x="20" y="410" width="210" height="50" rx="8" fill="#19BE82" opacity="0.1" stroke="#19BE82" stroke-width="2" />
  <text x="45" y="435" font-family="Inter, sans-serif" font-size="14" font-weight="600" fill="#1E293B">Elizabeth Bennet</text>
  <text x="45" y="450" font-family="Inter, sans-serif" font-size="12" fill="#64748B">Main Character • 742 lines</text>
  
  <rect x="20" y="470" width="210" height="50" rx="8" fill="#FFFFFF" stroke="#E2E8F0" stroke-width="1" />
  <text x="45" y="495" font-family="Inter, sans-serif" font-size="14" fill="#1E293B">Mr. Darcy</text>
  <text x="45" y="510" font-family="Inter, sans-serif" font-size="12" fill="#64748B">Main Character • 583 lines</text>
  
  <rect x="20" y="530" width="210" height="50" rx="8" fill="#FFFFFF" stroke="#E2E8F0" stroke-width="1" />
  <text x="45" y="555" font-family="Inter, sans-serif" font-size="14" fill="#1E293B">Jane Bennet</text>
  <text x="45" y="570" font-family="Inter, sans-serif" font-size="12" fill="#64748B">Supporting • 346 lines</text>
  
  <rect x="20" y="590" width="210" height="50" rx="8" fill="#FFFFFF" stroke="#E2E8F0" stroke-width="1" />
  <text x="45" y="615" font-family="Inter, sans-serif" font-size="14" fill="#1E293B">Mrs. Bennet</text>
  <text x="45" y="630" font-family="Inter, sans-serif" font-size="12" fill="#64748B">Supporting • 289 lines</text>
  
  <rect x="20" y="650" width="210" height="50" rx="8" fill="#FFFFFF" stroke="#E2E8F0" stroke-width="1" />
  <text x="45" y="675" font-family="Inter, sans-serif" font-size="14" fill="#1E293B">Narrator</text>
  <text x="45" y="690" font-family="Inter, sans-serif" font-size="12" fill="#64748B">Narration • 1,246 sections</text>
  
  <!-- Center Panel: Character Voice Workspace -->
  <rect x="250" y="0" width="650" height="800" fill="#FFFFFF" />
  
  <!-- Header -->
  <rect x="250" y="0" width="650" height="60" fill="#FFFFFF" stroke="#E2E8F0" stroke-width="1" />
  <text x="280" y="35" font-family="Inter, sans-serif" font-size="18" font-weight="600" fill="#1E293B">Character Voice Assignment</text>
  <text x="550" y="35" font-family="Inter, sans-serif" font-size="14" fill="#64748B">12 of 18 voices assigned</text>
  
  <!-- Progress Bar -->
  <rect x="750" y="30" width="120" height="8" rx="4" fill="#E2E8F0" />
  <rect x="750" y="30" width="80" height="8" rx="4" fill="#19BE82" />
  
  <!-- Character Profile -->
  <rect x="280" y="90" width="590" height="130" rx="8" fill="#F5F7FA" />
  
  <!-- Character Image Placeholder -->
  <circle cx="340" cy="155" r="40" fill="#19BE82" opacity="0.2" />
  <text x="340" y="162" font-family="Inter, sans-serif" font-size="24" fill="#19BE82" font-weight="600" text-anchor="middle">EB</text>
  
  <!-- Character Info -->
  <text x="400" y="120" font-family="Inter, sans-serif" font-size="20" font-weight="600" fill="#1E293B">Elizabeth Bennet</text>
  <rect x="400" y="130" width="80" height="24" rx="12" fill="#6C63FF" opacity="0.1" />
  <text x="440" y="146" font-family="Inter, sans-serif" font-size="12" fill="#6C63FF" font-weight="500" text-anchor="middle">AI detected</text>
  
  <text x="400" y="170" font-family="Inter, sans-serif" font-size="14" fill="#64748B">Main Character • Female • 742 dialogue lines • Confidence: 98%</text>
  
  <!-- Character Description -->
  <text x="400" y="195" font-family="Inter, sans-serif" font-size="14" fill="#1E293B" style="font-style: italic">"An intelligent young woman with wit and strong opinions."</text>
  
  <!-- Voice Preview Section -->
  <text x="280" y="250" font-family="Inter, sans-serif" font-size="16" font-weight="600" fill="#1E293B">Voice Preview</text>
  
  <!-- Voice Selector -->
  <rect x="280" y="280" width="300" height="50" rx="8" fill="#FFFFFF" stroke="#E2E8F0" stroke-width="1" />
  <text x="300" y="310" font-family="Inter, sans-serif" font-size="14" fill="#1E293B">Female Voice 3 (British, Young Adult)</text>
  <path d="M560 305 L570 295 L560 285" fill="none" stroke="#64748B" stroke-width="1.5" />
  
  <!-- Preview Controls -->
  <rect x="600" y="280" width="50" height="50" rx="8" fill="#19BE82" />
  <path d="M615 295 L635 305 L615 315 Z" fill="white" />
  
  <rect x="660" y="280" width="50" height="50" rx="8" fill="#FFFFFF" stroke="#E2E8F0" stroke-width="1" />
  <rect x="675" y="295" width="5" height="20" fill="#1E293B" />
  <rect x="685" y="295" width="5" height="20" fill="#1E293B" />
  
  <!-- Preview Text -->
  <rect x="280" y="350" width="590" height="100" rx="8" fill="#FFFFFF" stroke="#E2E8F0" stroke-width="1" />
  <text x="300" y="385" font-family="Inter, sans-serif" font-size="14" fill="#1E293B">"I could easily forgive his pride, if he had not mortified mine."</text>
  <text x="300" y="420" font-family="Inter, sans-serif" font-size="12" fill="#64748B" style="font-style: italic">Chapter 5, Pride and Prejudice</text>
  
  <!-- Audio Waveform -->
  <rect x="280" y="470" width="590" height="80" rx="8" fill="#F5F7FA" />
  
  <!-- Waveform Visualization -->
  <path d="M300 510 L310 490 L320 510 L330 520 L340 490 L350 500 L360 510 L370 480 L380 510 L390 530 L400 490 L410 500 L420 520 L430 480 L440 510 L450 520 L460 490 L470 530 L480 500 L490 510 L500 490 L510 510 L520 520 L530 500 L540 480 L550 510 L560 490 L570 510 L580 500 L590 490 L600 510 L610 530 L620 500 L630 480 L640 510 L650 520 L660 500 L670 490 L680 510 L690 500 L700 510 L710 490 L720 510 L730 500 L740 520 L750 510 L760 500 L770 510 L780 490 L790 510 L800 520 L810 500 L820 510 L830 500 L840 510 L850 510" fill="none" stroke="#19BE82" stroke-width="2" />
  
  <!-- Timeline Marker -->
  <line x1="400" y1="480" x2="400" y2="540" stroke="#FF9F5A" stroke-width="2" />
  <circle cx="400" cy="550" r="5" fill="#FF9F5A" />
  
  <!-- Time Indicators -->
  <text x="300" y="560" font-family="Inter, sans-serif" font-size="12" fill="#64748B">0:00</text>
  <text x="855" y="560" font-family="Inter, sans-serif" font-size="12" fill="#64748B">0:12</text>
  <text x="400" y="560" font-family="Inter, sans-serif" font-size="12" fill="#FF9F5A">0:02.5</text>
  
  <!-- Voice Parameter Controls -->
  <text x="280" y="600" font-family="Inter, sans-serif" font-size="16" font-weight="600" fill="#1E293B">Voice Parameters</text>
  
  <!-- Pitch Control -->
  <text x="280" y="630" font-family="Inter, sans-serif" font-size="14" fill="#1E293B">Pitch</text>
  <rect x="360" y="625" width="200" height="10" rx="5" fill="#E2E8F0" />
  <rect x="360" y="625" width="120" height="10" rx="5" fill="#19BE82" />
  <circle cx="480" cy="630" r="8" fill="#19BE82" stroke="white" stroke-width="2" />
  <text x="580" y="630" font-family="Inter, sans-serif" font-size="14" fill="#64748B">+20%</text>
  
  <!-- Speed Control -->
  <text x="280" y="670" font-family="Inter, sans-serif" font-size="14" fill="#1E293B">Speed</text>
  <rect x="360" y="665" width="200" height="10" rx="5" fill="#E2E8F0" />
  <rect x="360" y="665" width="90" height="10" rx="5" fill="#19BE82" />
  <circle cx="450" cy="670" r="8" fill="#19BE82" stroke="white" stroke-width="2" />
  <text x="580" y="670" font-family="Inter, sans-serif" font-size="14" fill="#64748B">-5%</text>
  
  <!-- Emotion Control -->
  <text x="280" y="710" font-family="Inter, sans-serif" font-size="14" fill="#1E293B">Emotion</text>
  <rect x="360" y="705" width="200" height="10" rx="5" fill="#E2E8F0" />
  <rect x="360" y="705" width="140" height="10" rx="5" fill="#19BE82" />
  <circle cx="500" cy="710" r="8" fill="#19BE82" stroke="white" stroke-width="2" />
  <text x="580" y="710" font-family="Inter, sans-serif" font-size="14" fill="#64748B">Confident</text>
  
  <!-- Footer -->
  <rect x="250" y="740" width="650" height="60" fill="#FFFFFF" stroke="#E2E8F0" stroke-width="1" />
  
  <!-- Footer Buttons -->
  <rect x="450" y="750" width="120" height="40" rx="8" fill="#FFFFFF" stroke="#E2E8F0" stroke-width="1" />
  <text x="510" y="775" font-family="Inter, sans-serif" font-size="14" fill="#1E293B" text-anchor="middle">Reset</text>
  
  <rect x="580" y="750" width="120" height="40" rx="8" fill="#FFFFFF" stroke="#19BE82" stroke-width="2" />
  <text x="640" y="775" font-family="Inter, sans-serif" font-size="14" fill="#19BE82" font-weight="500" text-anchor="middle">Apply</text>
  
  <rect x="710" y="750" width="170" height="40" rx="8" fill="#19BE82" />
  <text x="795" y="775" font-family="Inter, sans-serif" font-size="14" fill="white" font-weight="500" text-anchor="middle">Next Character</text>
  
  <!-- Right Panel: Voice Library -->
  <rect x="900" y="0" width="300" height="800" fill="#FFFFFF" />
  
  <!-- Settings Header -->
  <rect x="900" y="0" width="300" height="60" fill="#FFFFFF" stroke="#E2E8F0" stroke-width="1" />
  <text x="930" y="35" font-family="Inter, sans-serif" font-size="18" font-weight="600" fill="#1E293B">Voice Library</text>
  
  <!-- Tabs -->
  <rect x="900" y="60" width="300" height="40" fill="#F5F7FA" />
  <rect x="900" y="60" width="150" height="40" fill="#FFFFFF" />
  <text x="975" y="85" font-family="Inter, sans-serif" font-size="14" font-weight="600" fill="#19BE82" text-anchor="middle">Female</text>
  <text x="1125" y="85" font-family="Inter, sans-serif" font-size="14" fill="#64748B" text-anchor="middle">Male</text>
  
  <!-- Search -->
  <rect x="920" y="120" width="260" height="40" rx="8" fill="#F5F7FA" />
  <text x="970" y="145" font-family="Inter, sans-serif" font-size="14" fill="#64748B">Search voices...</text>
  <circle cx="940" cy="140" r="10" fill="none" stroke="#64748B" stroke-width="1.5" />
  <line x1="948" y1="148" x2="952" y2="152" stroke="#64748B" stroke-width="1.5" />
  
  <!-- Voice Filters -->
  <text x="920" y="180" font-family="Inter, sans-serif" font-size="14" font-weight="600" fill="#1E293B">Filters</text>
  
  <!-- Filter Chips -->
  <rect x="920" y="200" width="80" height="30" rx="15" fill="#19BE82" opacity="0.1" stroke="#19BE82" stroke-width="1" />
  <text x="960" y="220" font-family="Inter, sans-serif" font-size="12" fill="#19BE82" font-weight="500" text-anchor="middle">British</text>
  
  <rect x="1010" y="200" width="80" height="30" rx="15" fill="#FFFFFF" stroke="#E2E8F0" stroke-width="1" />
  <text x="1050" y="220" font-family="Inter, sans-serif" font-size="12" fill="#64748B" text-anchor="middle">American</text>
  
  <rect x="1100" y="200" width="80" height="30" rx="15" fill="#FFFFFF" stroke="#E2E8F0" stroke-width="1" />
  <text x="1140" y="220" font-family="Inter, sans-serif" font-size="12" fill="#64748B" text-anchor="middle">Australian</text>
  
  <rect x="920" y="240" width="80" height="30" rx="15" fill="#19BE82" opacity="0.1" stroke="#19BE82" stroke-width="1" />
  <text x="960" y="260" font-family="Inter, sans-serif" font-size="12" fill="#19BE82" font-weight="500" text-anchor="middle">Young</text>
  
  <rect x="1010" y="240" width="80" height="30" rx="15" fill="#FFFFFF" stroke="#E2E8F0" stroke-width="1" />
  <text x="1050" y="260" font-family="Inter, sans-serif" font-size="12" fill="#64748B" text-anchor="middle">Middle Age</text>
  
  <rect x="1100" y="240" width="80" height="30" rx="15" fill="#FFFFFF" stroke="#E2E8F0" stroke-width="1" />
  <text x="1140" y="260" font-family="Inter, sans-serif" font-size="12" fill="#64748B" text-anchor="middle">Elderly</text>
  
  <!-- Voice List -->
  <text x="920" y="300" font-family="Inter, sans-serif" font-size="14" font-weight="600" fill="#1E293B">Available Voices</text>
  
  <!-- Voice Items -->
  <rect x="920" y="320" width="260" height="60" rx="8" fill="#19BE82" opacity="0.1" stroke="#19BE82" stroke-width="2" />
  <text x="980" y="345" font-family="Inter, sans-serif" font-size="14" font-weight="600" fill="#1E293B">Female Voice 3</text>
  <text x="980" y="365" font-family="Inter, sans-serif" font-size="12" fill="#64748B">British, Young Adult</text>
  <circle cx="945" cy="350" r="15" fill="#19BE82" opacity="0.2" />
  <path d="M940 350 L950 355 L940 360 Z" fill="#19BE82" />
  <rect x="1150" y="335" width="20" height="20" rx="10" fill="#19BE82" />
  <path d="M1156 345 L1160 349 L1166 343" fill="none" stroke="white" stroke-width="2" />
  
  <rect x="920" y="390" width="260" height="60" rx="8" fill="#FFFFFF" stroke="#E2E8F0" stroke-width="1" />
  <text x="980" y="415" font-family="Inter, sans-serif" font-size="14" fill="#1E293B">Female Voice 7</text>
  <text x="980" y="435" font-family="Inter, sans-serif" font-size="12" fill="#64748B">British, Middle Age</text>
  <circle cx="945" cy="420" r="15" fill="#F5F7FA" />
  <path d="M940 420 L950 425 L940 430 Z" fill="#64748B" />
  <circle cx="1160" cy="420" r="10" fill="#FFFFFF" stroke="#E2E8F0" stroke-width="1" />
  
  <rect x="920" y="460" width="260" height="60" rx="8" fill="#FFFFFF" stroke="#E2E8F0" stroke-width="1" />
  <text x="980" y="485" font-family="Inter, sans-serif" font-size="14" fill="#1E293B">Female Voice 2</text>
  <text x="980" y="505" font-family="Inter, sans-serif" font-size="12" fill="#64748B">American, Young Adult</text>
  <circle cx="945" cy="490" r="15" fill="#F5F7FA" />
  <path d="M940 490 L950 495 L940 500 Z" fill="#64748B" />
  <circle cx="1160" cy="490" r="10" fill="#FFFFFF" stroke="#E2E8F0" stroke-width="1" />
  
  <rect x="920" y="530" width="260" height="60" rx="8" fill="#FFFFFF" stroke="#E2E8F0" stroke-width="1" />
  <text x="980" y="555" font-family="Inter, sans-serif" font-size="14" fill="#1E293B">Female Voice 5</text>
  <text x="980" y="575" font-family="Inter, sans-serif" font-size="12" fill="#64748B">Australian, Young Adult</text>
  <circle cx="945" cy="560" r="15" fill="#F5F7FA" />
  <path d="M940 560 L950 565 L940 570 Z" fill="#64748B" />
  <circle cx="1160" cy="560" r="10" fill="#FFFFFF" stroke="#E2E8F0" stroke-width="1" />
  
  <!-- Batch Actions -->
  <text x="920" y="620" font-family="Inter, sans-serif" font-size="14" font-weight="600" fill="#1E293B">Batch Actions</text>
  <rect x="920" y="640" width="260" height="50" rx="8" fill="#FFFFFF" stroke="#E2E8F0" stroke-width="1" />
  <text x="950" y="670" font-family="Inter, sans-serif" font-size="14" fill="#1E293B">Auto-Assign All Voices</text>
  <text x="950" y="685" font-family="Inter, sans-serif" font-size="12" fill="#64748B">Uses AI to match voices to characters</text>
  <rect x="1150" y="655" width="20" height="20" rx="4" fill="#19BE82" />
  <path d="M1154 665 L1158 669 L1166 661" fill="none" stroke="white" stroke-width="2" />
  
  <rect x="920" y="700" width="260" height="50" rx="8" fill="#FFFFFF" stroke="#E2E8F0" stroke-width="1" />
  <text x="950" y="730" font-family="Inter, sans-serif" font-size="14" fill="#1E293B">Apply Voice Settings to All</text>
  <text x="950" y="745" font-family="Inter, sans-serif" font-size="12" fill="#64748B">Consistent parameters for all voices</text>
</svg>