<svg viewBox="0 0 1200 800" xmlns="http://www.w3.org/2000/svg">
  <!-- Background -->
  <rect width="1200" height="800" fill="#F5F7FA" />
  
  <!-- Left Panel: Navigation Sidebar -->
  <rect x="0" y="0" width="250" height="800" fill="#FFFFFF" />
  
  <!-- Project Selector -->
  <rect x="20" y="20" width="210" height="50" rx="8" fill="#19BE82" />
  <text x="70" y="50" font-family="Inter, sans-serif" font-size="16" fill="white" font-weight="600">Pride and Prejudice</text>
  <circle cx="45" cy="45" r="15" fill="white" opacity="0.3" />
  <path d="M45 50 L52 43 L45 36 L38 43 Z" fill="white" />
  
  <!-- Search Bar -->
  <rect x="20" y="90" width="210" height="40" rx="8" fill="#F5F7FA" />
  <text x="55" y="115" font-family="Inter, sans-serif" font-size="14" fill="#64748B">Search projects...</text>
  <circle cx="40" cy="110" r="10" fill="none" stroke="#64748B" stroke-width="1.5" />
  <line x1="48" y1="118" x2="52" y2="122" stroke="#64748B" stroke-width="1.5" />
  
  <!-- Section Header: Tools -->
  <text x="20" y="160" font-family="Inter, sans-serif" font-size="14" font-weight="600" fill="#1E293B">Tools</text>
  <path d="M25 152 L35 152 L30 158 Z" fill="#1E293B" />
  
  <!-- Tools Grid -->
  <rect x="20" y="180" width="100" height="80" rx="8" fill="white" stroke="#E2E8F0" stroke-width="1" />
  <rect x="130" y="180" width="100" height="80" rx="8" fill="white" stroke="#E2E8F0" stroke-width="1" />
  <rect x="20" y="270" width="100" height="80" rx="8" fill="white" stroke="#E2E8F0" stroke-width="1" />
  <rect x="130" y="270" width="100" height="80" rx="8" fill="#19BE82" opacity="0.1" stroke="#19BE82" stroke-width="2" />
  
  <!-- Tool Icons and Labels -->
  <circle cx="70" cy="215" r="15" fill="#F5F7FA" />
  <text x="70" y="250" font-family="Inter, sans-serif" font-size="14" fill="#1E293B" text-anchor="middle">Import</text>
  
  <rect x="165" y="200" width="30" height="30" rx="4" fill="#F5F7FA" />
  <text x="180" y="250" font-family="Inter, sans-serif" font-size="14" fill="#1E293B" text-anchor="middle">Editor</text>
  
  <rect x="55" y="290" width="30" height="30" rx="15" fill="#F5F7FA" />
  <text x="70" y="340" font-family="Inter, sans-serif" font-size="14" fill="#1E293B" text-anchor="middle">Voices</text>
  
  <path d="M180 290 L165 305 L175 305 L175 315 L185 315 L185 305 L195 305 Z" fill="#19BE82" opacity="0.2" />
  <text x="180" y="340" font-family="Inter, sans-serif" font-size="14" fill="#19BE82" font-weight="600" text-anchor="middle">Export</text>
  
  <!-- Project Details -->
  <text x="20" y="390" font-family="Inter, sans-serif" font-size="14" font-weight="600" fill="#1E293B">Project Details</text>
  <path d="M25 382 L35 382 L30 388 Z" fill="#1E293B" />
  
  <!-- Details List -->
  <rect x="20" y="410" width="210" height="320" rx="8" fill="#F5F7FA" />
  
  <!-- Details Content -->
  <text x="35" y="435" font-family="Inter, sans-serif" font-size="12" fill="#64748B">Title</text>
  <text x="35" y="455" font-family="Inter, sans-serif" font-size="14" font-weight="500" fill="#1E293B">Pride and Prejudice</text>
  
  <text x="35" y="485" font-family="Inter, sans-serif" font-size="12" fill="#64748B">Author</text>
  <text x="35" y="505" font-family="Inter, sans-serif" font-size="14" font-weight="500" fill="#1E293B">Jane Austen</text>
  
  <text x="35" y="535" font-family="Inter, sans-serif" font-size="12" fill="#64748B">Chapters</text>
  <text x="35" y="555" font-family="Inter, sans-serif" font-size="14" font-weight="500" fill="#1E293B">27 chapters</text>
  
  <text x="35" y="585" font-family="Inter, sans-serif" font-size="12" fill="#64748B">Characters</text>
  <text x="35" y="605" font-family="Inter, sans-serif" font-size="14" font-weight="500" fill="#1E293B">18 characters</text>
  
  <text x="35" y="635" font-family="Inter, sans-serif" font-size="12" fill="#64748B">Duration</text>
  <text x="35" y="655" font-family="Inter, sans-serif" font-size="14" font-weight="500" fill="#1E293B">11 hours 42 minutes</text>
  
  <text x="35" y="685" font-family="Inter, sans-serif" font-size="12" fill="#64748B">File Size</text>
  <text x="35" y="705" font-family="Inter, sans-serif" font-size="14" font-weight="500" fill="#1E293B">684 MB</text>
  
  <!-- Center Panel: Export Workspace -->
  <rect x="250" y="0" width="650" height="800" fill="#FFFFFF" />
  
  <!-- Export Header -->
  <rect x="250" y="0" width="650" height="60" fill="#FFFFFF" stroke="#E2E8F0" stroke-width="1" />
  <text x="280" y="35" font-family="Inter, sans-serif" font-size="18" font-weight="600" fill="#1E293B">Export Audiobook</text>
  <text x="450" y="35" font-family="Inter, sans-serif" font-size="14" fill="#64748B">Step 4 of 4: Configure and Export</text>
  
  <!-- Progress Bar -->
  <rect x="750" y="30" width="120" height="8" rx="4" fill="#E2E8F0" />
  <rect x="750" y="30" width="120" height="8" rx="4" fill="#19BE82" />
  
  <!-- Export Preview -->
  <rect x="280" y="90" width="590" height="240" rx="8" fill="#F5F7FA" />
  
  <!-- Audiobook Cover -->
  <rect x="320" y="120" width="140" height="180" rx="8" fill="white" stroke="#E2E8F0" stroke-width="1" />
  <rect x="340" y="140" width="100" height="140" rx="4" fill="#19BE82" opacity="0.1" />
  <text x="390" y="210" font-family="Inter, sans-serif" font-size="14" fill="#19BE82" font-weight="600" text-anchor="middle">P&P</text>
  
  <!-- Audiobook Details -->
  <text x="500" y="140" font-family="Inter, sans-serif" font-size="20" font-weight="600" fill="#1E293B">Pride and Prejudice</text>
  <text x="500" y="170" font-family="Inter, sans-serif" font-size="16" fill="#64748B">Jane Austen</text>
  
  <text x="500" y="200" font-family="Inter, sans-serif" font-size="14" fill="#1E293B">Narrated by: Voice System</text>
  <text x="500" y="225" font-family="Inter, sans-serif" font-size="14" fill="#1E293B">Length: 11 hours 42 minutes</text>
  <text x="500" y="250" font-family="Inter, sans-serif" font-size="14" fill="#1E293B">Format: M4B Audiobook</text>
  <text x="500" y="275" font-family="Inter, sans-serif" font-size="14" fill="#1E293B">Quality: High (256 kbps)</text>
  
  <!-- Chapters Preview -->
  <text x="280" y="360" font-family="Inter, sans-serif" font-size="16" font-weight="600" fill="#1E293B">Audiobook Chapters</text>
  
  <!-- Chapter Order List -->
  <rect x="280" y="380" width="590" height="280" rx="8" fill="white" stroke="#E2E8F0" stroke-width="1" />
  
  <!-- Column Headers -->
  <rect x="280" y="380" width="590" height="40" rx="8 8 0 0" fill="#F5F7FA" />
  <text x="310" y="405" font-family="Inter, sans-serif" font-size="14" font-weight="600" fill="#1E293B">Chapter</text>
  <text x="530" y="405" font-family="Inter, sans-serif" font-size="14" font-weight="600" fill="#1E293B">Duration</text>
  <text x="640" y="405" font-family="Inter, sans-serif" font-size="14" font-weight="600" fill="#1E293B">Audio Status</text>
  <text x="780" y="405" font-family="Inter, sans-serif" font-size="14" font-weight="600" fill="#1E293B">Actions</text>
  
  <!-- Chapter Items -->
  <rect x="280" y="420" width="590" height="1" fill="#E2E8F0" />
  <text x="310" y="445" font-family="Inter, sans-serif" font-size="14" fill="#1E293B">1. Chapter 1</text>
  <text x="530" y="445" font-family="Inter, sans-serif" font-size="14" fill="#64748B">24:12</text>
  <rect x="640" y="430" width="80" height="24" rx="12" fill="#19BE82" opacity="0.1" />
  <text x="680" y="445" font-family="Inter, sans-serif" font-size="12" fill="#19BE82" font-weight="500" text-anchor="middle">Complete</text>
  <rect x="780" y="430" width="24" height="24" rx="4" fill="#F5F7FA" />
  <path d="M786 442 L790 446 L798 438" fill="none" stroke="#64748B" stroke-width="1.5" />
  
  <rect x="280" y="460" width="590" height="1" fill="#E2E8F0" />
  <text x="310" y="485" font-family="Inter, sans-serif" font-size="14" fill="#1E293B">2. Chapter 2</text>
  <text x="530" y="485" font-family="Inter, sans-serif" font-size="14" fill="#64748B">27:35</text>
  <rect x="640" y="470" width="80" height="24" rx="12" fill="#19BE82" opacity="0.1" />
  <text x="680" y="485" font-family="Inter, sans-serif" font-size="12" fill="#19BE82" font-weight="500" text-anchor="middle">Complete</text>
  <rect x="780" y="470" width="24" height="24" rx="4" fill="#F5F7FA" />
  <path d="M786 482 L790 486 L798 478" fill="none" stroke="#64748B" stroke-width="1.5" />
  
  <rect x="280" y="500" width="590" height="1" fill="#E2E8F0" />
  <text x="310" y="525" font-family="Inter, sans-serif" font-size="14" fill="#1E293B">3. Chapter 3</text>
  <text x="530" y="525" font-family="Inter, sans-serif" font-size="14" fill="#64748B">25:48</text>
  <rect x="640" y="510" width="80" height="24" rx="12" fill="#19BE82" opacity="0.1" />
  <text x="680" y="525" font-family="Inter, sans-serif" font-size="12" fill="#19BE82" font-weight="500" text-anchor="middle">Complete</text>
  <rect x="780" y="510" width="24" height="24" rx="4" fill="#F5F7FA" />
  <path d="M786 522 L790 526 L798 518" fill="none" stroke="#64748B" stroke-width="1.5" />
  
  <rect x="280" y="540" width="590" height="1" fill="#E2E8F0" />
  <text x="310" y="565" font-family="Inter, sans-serif" font-size="14" fill="#1E293B">4. Chapter 4</text>
  <text x="530" y="565" font-family="Inter, sans-serif" font-size="14" fill="#64748B">22:07</text>
  <rect x="640" y="550" width="80" height="24" rx="12" fill="#19BE82" opacity="0.1" />
  <text x="680" y="565" font-family="Inter, sans-serif" font-size="12" fill="#19BE82" font-weight="500" text-anchor="middle">Complete</text>
  <rect x="780" y="550" width="24" height="24" rx="4" fill="#F5F7FA" />
  <path d="M786 562 L790 566 L798 558" fill="none" stroke="#64748B" stroke-width="1.5" />
  
  <rect x="280" y="580" width="590" height="1" fill="#E2E8F0" />
  <text x="310" y="605" font-family="Inter, sans-serif" font-size="14" fill="#1E293B">5. Chapter 5</text>
  <text x="530" y="605" font-family="Inter, sans-serif" font-size="14" fill="#64748B">26:21</text>
  <rect x="640" y="590" width="80" height="24" rx="12" fill="#19BE82" opacity="0.1" />
  <text x="680" y="605" font-family="Inter, sans-serif" font-size="12" fill="#19BE82" font-weight="500" text-anchor="middle">Complete</text>
  <rect x="780" y="590" width="24" height="24" rx="4" fill="#F5F7FA" />
  <path d="M786 602 L790 606 L798 598" fill="none" stroke="#64748B" stroke-width="1.5" />
  
  <rect x="280" y="620" width="590" height="1" fill="#E2E8F0" />
  <text x="310" y="645" font-family="Inter, sans-serif" font-size="14" fill="#1E293B">6. Chapter 6</text>
  <text x="530" y="645" font-family="Inter, sans-serif" font-size="14" fill="#64748B">29:44</text>
  <rect x="640" y="630" width="80" height="24" rx="12" fill="#19BE82" opacity="0.1" />
  <text x="680" y="645" font-family="Inter, sans-serif" font-size="12" fill="#19BE82" font-weight="500" text-anchor="middle">Complete</text>
  <rect x="780" y="630" width="24" height="24" rx="4" fill="#F5F7FA" />
  <path d="M786 642 L790 646 L798 638" fill="none" stroke="#64748B" stroke-width="1.5" />
  
  <!-- Export Footer -->
  <rect x="250" y="740" width="650" height="60" fill="#FFFFFF" stroke="#E2E8F0" stroke-width="1" />
  
  <!-- Footer Buttons -->
  <rect x="450" y="750" width="120" height="40" rx="8" fill="#FFFFFF" stroke="#E2E8F0" stroke-width="1" />
  <text x="510" y="775" font-family="Inter, sans-serif" font-size="14" fill="#1E293B" text-anchor="middle">Preview</text>
  
  <rect x="580" y="750" width="120" height="40" rx="8" fill="#FFFFFF" stroke="#19BE82" stroke-width="2" />
  <text x="640" y="775" font-family="Inter, sans-serif" font-size="14" fill="#19BE82" font-weight="500" text-anchor="middle">Save Draft</text>
  
  <rect x="710" y="750" width="170" height="40" rx="8" fill="#19BE82" />
  <text x="795" y="775" font-family="Inter, sans-serif" font-size="14" fill="white" font-weight="500" text-anchor="middle">Export Audiobook</text>
  
  <!-- Right Panel: Export Settings -->
  <rect x="900" y="0" width="300" height="800" fill="#FFFFFF" />
  
  <!-- Settings Header -->
  <rect x="900" y="0" width="300" height="60" fill="#FFFFFF" stroke="#E2E8F0" stroke-width="1" />
  <text x="930" y="35" font-family="Inter, sans-serif" font-size="18" font-weight="600" fill="#1E293B">Export Settings</text>
  
  <!-- Audio Format -->
  <text x="920" y="100" font-family="Inter, sans-serif" font-size="14" font-weight="600" fill="#1E293B">Audio Format</text>
  
  <!-- Format Options -->
  <rect x="920" y="120" width="260" height="40" rx="8" fill="#FFFFFF" stroke="#19BE82" stroke-width="2" />
  <text x="940" y="145" font-family="Inter, sans-serif" font-size="14" fill="#1E293B">M4B Audiobook</text>
  <circle cx="1160" cy="140" r="8" fill="#19BE82" />
  <circle cx="1160" cy="140" r="3" fill="white" />
  
  <rect x="920" y="170" width="260" height="40" rx="8" fill="#FFFFFF" stroke="#E2E8F0" stroke-width="1" />
  <text x="940" y="195" font-family="Inter, sans-serif" font-size="14" fill="#1E293B">MP3 Audio Files</text>
  <circle cx="1160" cy="190" r="8" fill="#F5F7FA" stroke="#E2E8F0" stroke-width="1" />
  
  <!-- Quality Settings -->
  <text x="920" y="240" font-family="Inter, sans-serif" font-size="14" font-weight="600" fill="#1E293B">Audio Quality</text>
  
  <!-- Quality Options -->
  <rect x="920" y="260" width="260" height="40" rx="8" fill="#FFFFFF" stroke="#19BE82" stroke-width="2" />
  <text x="940" y="285" font-family="Inter, sans-serif" font-size="14" fill="#1E293B">High (256 kbps)</text>
  <circle cx="1160" cy="280" r="8" fill="#19BE82" />
  <circle cx="1160" cy="280" r="3" fill="white" />
  
  <rect x="920" y="310" width="260" height="40" rx="8" fill="#FFFFFF" stroke="#E2E8F0" stroke-width="1" />
  <text x="940" y="335" font-family="Inter, sans-serif" font-size="14" fill="#1E293B">Medium (128 kbps)</text>
  <circle cx="1160" cy="330" r="8" fill="#F5F7FA" stroke="#E2E8F0" stroke-width="1" />
  
  <rect x="920" y="360" width="260" height="40" rx="8" fill="#FFFFFF" stroke="#E2E8F0" stroke-width="1" />
  <text x="940" y="385" font-family="Inter, sans-serif" font-size="14" fill="#1E293B">Low (64 kbps)</text>
  <circle cx="1160" cy="380" r="8" fill="#F5F7FA" stroke="#E2E8F0" stroke-width="1" />
  
  <!-- Metadata -->
  <text x="920" y="430" font-family="Inter, sans-serif" font-size="14" font-weight="600" fill="#1E293B">Metadata</text>
  
  <!-- Title -->
  <text x="920" y="460" font-family="Inter, sans-serif" font-size="12" fill="#64748B">Title</text>
  <rect x="920" y="470" width="260" height="40" rx="8" fill="#FFFFFF" stroke="#E2E8F0" stroke-width="1" />
  <text x="935" y="495" font-family="Inter, sans-serif" font-size="14" fill="#1E293B">Pride and Prejudice</text>
  
  <!-- Author -->
  <text x="920" y="530" font-family="Inter, sans-serif" font-size="12" fill="#64748B">Author</text>
  <rect x="920" y="540" width="260" height="40" rx="8" fill="#FFFFFF" stroke="#E2E8F0" stroke-width="1" />
  <text x="935" y="565" font-family="Inter, sans-serif" font-size="14" fill="#1E293B">Jane Austen</text>
  
  <!-- Narrator -->
  <text x="920" y="600" font-family="Inter, sans-serif" font-size="12" fill="#64748B">Narrator</text>
  <rect x="920" y="610" width="260" height="40" rx="8" fill="#FFFFFF" stroke="#E2E8F0" stroke-width="1" />
  <text x="935" y="635" font-family="Inter, sans-serif" font-size="14" fill="#1E293B">TTS Audiobook System</text>
  
  <!-- Advanced Options -->
  <text x="920" y="680" font-family="Inter, sans-serif" font-size="14" font-weight="600" fill="#1E293B">Advanced Options</text>
  
  <!-- Add Chapter Markers -->
  <rect x="920" y="700" width="260" height="40" rx="8" fill="#FFFFFF" stroke="#E2E8F0" stroke-width="1" />
  <text x="940" y="725" font-family="Inter, sans-serif" font-size="14" fill="#1E293B">Add Chapter Markers</text>
  <rect x="1140" y="710" width="40" height="20" rx="10" fill="#19BE82" />
  <circle cx="1170" cy="720" r="8" fill="white" />
  
  <!-- Include Book Cover -->
  <rect x="920" y="750" width="260" height="40" rx="8" fill="#FFFFFF" stroke="#E2E8F0" stroke-width="1" />
  <text x="940" y="775" font-family="Inter, sans-serif" font-size="14" fill="#1E293B">Include Book Cover</text>
  <rect x="1140" y="760" width="40" height="20" rx="10" fill="#19BE82" />
  <circle cx="1170" cy="770" r="8" fill="white" />
</svg>