<svg viewBox="0 0 1200 800" xmlns="http://www.w3.org/2000/svg">
  <!-- Background -->
  <rect width="1200" height="800" fill="#F5F7FA" />
  
  <!-- Left Panel: Navigation Sidebar -->
  <rect x="0" y="0" width="250" height="800" fill="#FFFFFF" />
  
  <!-- Project Selector -->
  <rect x="20" y="20" width="210" height="50" rx="8" fill="#19BE82" />
  <text x="70" y="50" font-family="Inter, sans-serif" font-size="16" fill="white" font-weight="600">Audiobook Project</text>
  <circle cx="45" cy="45" r="15" fill="white" opacity="0.3" />
  <path d="M45 50 L52 43 L45 36 L38 43 Z" fill="white" />
  
  <!-- Search Bar -->
  <rect x="20" y="90" width="210" height="40" rx="8" fill="#F5F7FA" />
  <text x="55" y="115" font-family="Inter, sans-serif" font-size="14" fill="#64748B">Search projects...</text>
  <circle cx="40" cy="110" r="10" fill="none" stroke="#64748B" stroke-width="1.5" />
  <line x1="48" y1="118" x2="52" y2="122" stroke="#64748B" stroke-width="1.5" />
  
  <!-- Section Header: Library -->
  <text x="20" y="160" font-family="Inter, sans-serif" font-size="14" font-weight="600" fill="#1E293B">Library</text>
  <rect x="195" y="150" width="35" height="20" rx="10" fill="#E2E8F0" />
  <text x="210" y="165" font-family="Inter, sans-serif" font-size="12" fill="#64748B" text-anchor="middle">12</text>
  <path d="M25 152 L35 152 L30 158 Z" fill="#1E293B" />
  
  <!-- Tools Grid -->
  <rect x="20" y="180" width="100" height="80" rx="8" fill="white" stroke="#E2E8F0" stroke-width="1" />
  <rect x="130" y="180" width="100" height="80" rx="8" fill="white" stroke="#E2E8F0" stroke-width="1" />
  <rect x="20" y="270" width="100" height="80" rx="8" fill="white" stroke="#E2E8F0" stroke-width="1" />
  <rect x="130" y="270" width="100" height="80" rx="8" fill="white" stroke="#E2E8F0" stroke-width="1" />
  
  <!-- Tool Icons and Labels -->
  <circle cx="70" cy="215" r="15" fill="#F5F7FA" />
  <text x="70" y="250" font-family="Inter, sans-serif" font-size="14" fill="#1E293B" text-anchor="middle">Import</text>
  
  <rect x="165" y="200" width="30" height="30" rx="4" fill="#F5F7FA" />
  <text x="180" y="250" font-family="Inter, sans-serif" font-size="14" fill="#1E293B" text-anchor="middle">Editor</text>
  
  <rect x="55" y="290" width="30" height="30" rx="15" fill="#F5F7FA" />
  <text x="70" y="340" font-family="Inter, sans-serif" font-size="14" fill="#1E293B" text-anchor="middle">Voices</text>
  
  <path d="M180 290 L165 305 L175 305 L175 315 L185 315 L185 305 L195 305 Z" fill="#F5F7FA" />
  <text x="180" y="340" font-family="Inter, sans-serif" font-size="14" fill="#1E293B" text-anchor="middle">Export</text>
  
  <!-- Section Header: Recent Projects -->
  <text x="20" y="390" font-family="Inter, sans-serif" font-size="14" font-weight="600" fill="#1E293B">Recent Projects</text>
  <rect x="195" y="380" width="35" height="20" rx="10" fill="#E2E8F0" />
  <text x="210" y="395" font-family="Inter, sans-serif" font-size="12" fill="#64748B" text-anchor="middle">5</text>
  <path d="M25 382 L35 382 L30 388 Z" fill="#1E293B" />
  
  <!-- Recent Projects List -->
  <rect x="20" y="410" width="210" height="50" rx="8" fill="white" stroke="#19BE82" stroke-width="2" />
  <text x="45" y="435" font-family="Inter, sans-serif" font-size="14" font-weight="500" fill="#1E293B">Pride and Prejudice</text>
  <text x="45" y="450" font-family="Inter, sans-serif" font-size="12" fill="#64748B">Last edited 2 days ago</text>
  <rect x="20" y="470" width="210" height="50" rx="8" fill="white" stroke="#E2E8F0" stroke-width="1" />
  <text x="45" y="495" font-family="Inter, sans-serif" font-size="14" fill="#1E293B">The Great Gatsby</text>
  <text x="45" y="510" font-family="Inter, sans-serif" font-size="12" fill="#64748B">Last edited 5 days ago</text>
  
  <!-- Center Panel: Workspace -->
  <rect x="250" y="0" width="650" height="800" fill="#FFFFFF" />
  
  <!-- Workspace Header -->
  <rect x="250" y="0" width="650" height="60" fill="#FFFFFF" stroke="#E2E8F0" stroke-width="1" />
  <text x="280" y="35" font-family="Inter, sans-serif" font-size="18" font-weight="600" fill="#1E293B">Pride and Prejudice</text>
  <text x="500" y="35" font-family="Inter, sans-serif" font-size="14" fill="#64748B">EPUB • 432 pages • 7 chapters processed</text>
  <rect x="750" y="20" width="120" height="30" rx="15" fill="#F5F7FA" />
  <text x="810" y="40" font-family="Inter, sans-serif" font-size="14" fill="#1E293B" text-anchor="middle">80% Complete</text>
  
  <!-- Workflow Visualization -->
  <!-- Start Node -->
  <circle cx="350" cy="150" r="30" fill="#FFFFFF" stroke="#19BE82" stroke-width="2" />
  <text x="350" y="155" font-family="Inter, sans-serif" font-size="12" font-weight="600" fill="#1E293B" text-anchor="middle">Start</text>
  
  <!-- Book Import Node -->
  <rect x="320" y="220" width="60" height="60" rx="8" fill="#FFFFFF" stroke="#19BE82" stroke-width="2" />
  <text x="350" y="255" font-family="Inter, sans-serif" font-size="12" fill="#1E293B" text-anchor="middle">Import</text>
  <text x="350" y="270" font-family="Inter, sans-serif" font-size="10" fill="#64748B" text-anchor="middle">EPUB</text>
  
  <!-- Line connections -->
  <line x1="350" y1="180" x2="350" y2="220" stroke="#E2E8F0" stroke-width="2" />
  
  <!-- Text Processing Node -->
  <rect x="420" y="300" width="120" height="60" rx="8" fill="#FFFFFF" stroke="#19BE82" stroke-width="2" />
  <text x="480" y="330" font-family="Inter, sans-serif" font-size="12" fill="#1E293B" text-anchor="middle">Text Processing</text>
  <text x="480" y="345" font-family="Inter, sans-serif" font-size="10" fill="#64748B" text-anchor="middle">Complete</text>
  
  <!-- Line connections -->
  <line x1="350" y1="280" x2="350" y2="330" stroke="#E2E8F0" stroke-width="2" />
  <line x1="350" y1="330" x2="420" y2="330" stroke="#E2E8F0" stroke-width="2" />
  
  <!-- AI Analysis Node - Gemini -->
  <polygon points="480,400 520,400 540,430 520,460 480,460 460,430" fill="#FFFFFF" stroke="#6C63FF" stroke-width="2" />
  <text x="500" y="425" font-family="Inter, sans-serif" font-size="12" fill="#1E293B" text-anchor="middle">Gemini Analysis</text>
  <text x="500" y="440" font-family="Inter, sans-serif" font-size="10" fill="#6C63FF" text-anchor="middle">AI-Enhanced</text>
  
  <!-- Line connections -->
  <line x1="480" y1="360" x2="480" y2="400" stroke="#E2E8F0" stroke-width="2" />
  
  <!-- Character Identification Node -->
  <rect x="590" y="350" width="120" height="60" rx="8" fill="#FFFFFF" stroke="#19BE82" stroke-width="2" />
  <text x="650" y="380" font-family="Inter, sans-serif" font-size="12" fill="#1E293B" text-anchor="middle">Character ID</text>
  <text x="650" y="395" font-family="Inter, sans-serif" font-size="10" fill="#64748B" text-anchor="middle">18 identified</text>
  
  <!-- Line connections -->
  <line x1="540" y1="430" x2="590" y2="380" stroke="#E2E8F0" stroke-width="2" />
  
  <!-- Voice Assignment Node -->
  <rect x="590" y="450" width="120" height="60" rx="8" fill="#FFFFFF" stroke="#FF9F5A" stroke-width="2" />
  <text x="650" y="480" font-family="Inter, sans-serif" font-size="12" fill="#1E293B" text-anchor="middle">Voice Assignment</text>
  <text x="650" y="495" font-family="Inter, sans-serif" font-size="10" fill="#FF9F5A" text-anchor="middle">In Progress (12/18)</text>
  
  <!-- Line connections -->
  <line x1="650" y1="410" x2="650" y2="450" stroke="#E2E8F0" stroke-width="2" />
  
  <!-- Audio Generation Node -->
  <rect x="490" y="550" width="120" height="60" rx="8" fill="#FFFFFF" stroke="#E2E8F0" stroke-width="2" />
  <text x="550" y="580" font-family="Inter, sans-serif" font-size="12" fill="#1E293B" text-anchor="middle">Audio Generation</text>
  <text x="550" y="595" font-family="Inter, sans-serif" font-size="10" fill="#64748B" text-anchor="middle">Waiting</text>
  
  <!-- Line connections -->
  <line x1="650" y1="510" x2="650" y2="550" stroke="#E2E8F0" stroke-width="2" />
  <line x1="650" y1="550" x2="610" y2="550" stroke="#E2E8F0" stroke-width="2" />
  
  <!-- Export Node -->
  <rect x="390" y="620" width="120" height="60" rx="8" fill="#FFFFFF" stroke="#E2E8F0" stroke-width="2" />
  <text x="450" y="650" font-family="Inter, sans-serif" font-size="12" fill="#1E293B" text-anchor="middle">Export Audiobook</text>
  <text x="450" y="665" font-family="Inter, sans-serif" font-size="10" fill="#64748B" text-anchor="middle">Waiting</text>
  
  <!-- Line connections -->
  <line x1="490" y1="580" x2="450" y2="620" stroke="#E2E8F0" stroke-width="2" />
  
  <!-- End Node -->
  <circle cx="350" cy="650" r="30" fill="#FFFFFF" stroke="#E2E8F0" stroke-width="2" />
  <text x="350" y="655" font-family="Inter, sans-serif" font-size="12" font-weight="600" fill="#1E293B" text-anchor="middle">End</text>
  
  <!-- Line connections -->
  <line x1="390" y1="650" x2="350" y2="650" stroke="#E2E8F0" stroke-width="2" />
  
  <!-- Workspace Footer -->
  <rect x="250" y="740" width="650" height="60" fill="#FFFFFF" stroke="#E2E8F0" stroke-width="1" />
  
  <!-- Zoom Controls -->
  <circle cx="560" cy="770" r="15" fill="#F5F7FA" stroke="#E2E8F0" stroke-width="1" />
  <text x="560" y="774" font-family="Inter, sans-serif" font-size="16" fill="#1E293B" text-anchor="middle">-</text>
  
  <circle cx="600" cy="770" r="15" fill="#F5F7FA" stroke="#E2E8F0" stroke-width="1" />
  <text x="600" y="775" font-family="Inter, sans-serif" font-size="16" fill="#1E293B" text-anchor="middle">+</text>
  
  <rect x="630" y="755" width="100" height="30" rx="15" fill="#19BE82" />
  <text x="680" y="775" font-family="Inter, sans-serif" font-size="14" fill="white" text-anchor="middle">Fit to View</text>
  
  <rect x="740" y="755" width="130" height="30" rx="15" fill="#FFFFFF" stroke="#19BE82" stroke-width="2" />
  <text x="805" y="775" font-family="Inter, sans-serif" font-size="14" fill="#19BE82" text-anchor="middle">Run All Steps</text>
  
  <!-- Right Panel: Settings -->
  <rect x="900" y="0" width="300" height="800" fill="#FFFFFF" />
  
  <!-- Settings Header -->
  <rect x="900" y="0" width="300" height="60" fill="#FFFFFF" stroke="#E2E8F0" stroke-width="1" />
  
  <!-- Tabs -->
  <rect x="900" y="60" width="300" height="40" fill="#F5F7FA" />
  <rect x="900" y="60" width="100" height="40" fill="#FFFFFF" />
  <text x="950" y="85" font-family="Inter, sans-serif" font-size="14" font-weight="600" fill="#19BE82" text-anchor="middle">General</text>
  <text x="1050" y="85" font-family="Inter, sans-serif" font-size="14" fill="#64748B" text-anchor="middle">Characters</text>
  <text x="1150" y="85" font-family="Inter, sans-serif" font-size="14" fill="#64748B" text-anchor="middle">Voices</text>
  
  <!-- General Settings Content -->
  <text x="920" y="130" font-family="Inter, sans-serif" font-size="14" font-weight="600" fill="#1E293B">Project Settings</text>
  
  <!-- Project Name -->
  <text x="920" y="165" font-family="Inter, sans-serif" font-size="14" fill="#1E293B">Project Name</text>
  <rect x="920" y="175" width="260" height="40" rx="8" fill="#FFFFFF" stroke="#E2E8F0" stroke-width="1" />
  <text x="935" y="200" font-family="Inter, sans-serif" font-size="14" fill="#1E293B">Pride and Prejudice Audiobook</text>
  
  <!-- Processing Options -->
  <text x="920" y="245" font-family="Inter, sans-serif" font-size="14" fill="#1E293B">Processing Options</text>
  
  <!-- Options Toggles -->
  <rect x="920" y="260" width="260" height="40" rx="8" fill="#FFFFFF" stroke="#E2E8F0" stroke-width="1" />
  <text x="940" y="285" font-family="Inter, sans-serif" font-size="14" fill="#1E293B">Use AI Character Detection</text>
  <rect x="1140" y="270" width="40" height="20" rx="10" fill="#19BE82" />
  <circle cx="1170" cy="280" r="8" fill="white" />
  
  <rect x="920" y="310" width="260" height="40" rx="8" fill="#FFFFFF" stroke="#E2E8F0" stroke-width="1" />
  <text x="940" y="335" font-family="Inter, sans-serif" font-size="14" fill="#1E293B">Auto-Assign Similar Voices</text>
  <rect x="1140" y="320" width="40" height="20" rx="10" fill="#19BE82" />
  <circle cx="1170" cy="330" r="8" fill="white" />
  
  <rect x="920" y="360" width="260" height="40" rx="8" fill="#FFFFFF" stroke="#E2E8F0" stroke-width="1" />
  <text x="940" y="385" font-family="Inter, sans-serif" font-size="14" fill="#1E293B">High-Quality Audio Generation</text>
  <rect x="1140" y="370" width="40" height="20" rx="10" fill="#E2E8F0" />
  <circle cx="1150" cy="380" r="8" fill="white" />
  
  <!-- AI Settings -->
  <text x="920" y="430" font-family="Inter, sans-serif" font-size="14" font-weight="600" fill="#1E293B">Gemini AI Settings</text>
  
  <!-- Analysis Depth -->
  <text x="920" y="465" font-family="Inter, sans-serif" font-size="14" fill="#1E293B">Analysis Depth</text>
  <rect x="920" y="475" width="260" height="10" rx="5" fill="#E2E8F0" />
  <rect x="920" y="475" width="180" height="10" rx="5" fill="#6C63FF" />
  <circle cx="1100" cy="480" r="8" fill="#6C63FF" stroke="white" stroke-width="2" />
  <text x="920" y="505" font-family="Inter, sans-serif" font-size="12" fill="#64748B">Basic</text>
  <text x="1050" y="505" font-family="Inter, sans-serif" font-size="12" font-weight="600" fill="#6C63FF">Standard</text>
  <text x="1180" y="505" font-family="Inter, sans-serif" font-size="12" fill="#64748B">Deep</text>
  
  <!-- API Key -->
  <text x="920" y="545" font-family="Inter, sans-serif" font-size="14" fill="#1E293B">Gemini API Key</text>
  <rect x="920" y="555" width="260" height="40" rx="8" fill="#FFFFFF" stroke="#E2E8F0" stroke-width="1" />
  <text x="935" y="580" font-family="Inter, sans-serif" font-size="14" fill="#64748B">••••••••••••••••••••••</text>
  <rect x="1140" y="555" width="40" height="40" rx="8" fill="#F5F7FA" />
  <text x="1160" y="580" font-family="Inter, sans-serif" font-size="18" fill="#1E293B" text-anchor="middle">✏️</text>
  
  <!-- Action Buttons -->
  <rect x="920" y="635" width="260" height="40" rx="8" fill="#FFFFFF" stroke="#E2E8F0" stroke-width="1" />
  <text x="940" y="660" font-family="Inter, sans-serif" font-size="14" fill="#1E293B">Test Gemini Connection</text>
  <circle cx="1160" cy="655" r="8" fill="#19BE82" />
  <text x="1160" y="660" font-family="Inter, sans-serif" font-size="12" fill="white" text-anchor="middle">✓</text>
  
  <!-- Save Buttons -->
  <rect x="920" y="700" width="260" height="50" rx="8" fill="#19BE82" />
  <text x="1050" y="730" font-family="Inter, sans-serif" font-size="16" fill="white" font-weight="600" text-anchor="middle">Save Settings</text>
</svg>